<svg width="70" height="43" viewBox="0 0 70 43" fill="none" xmlns="http://www.w3.org/2000/svg">
<path d="M0 0V43H20.7737C22.6985 43 35.9544 42.6096 35.9544 30.5068C35.9544 22.9436 30.7519 20.3742 28.1098 19.6115C30.0528 18.6945 33.9206 16.5154 33.9206 10.6774C33.9206 7.42694 33.4576 0 20.1926 0H0ZM47.3581 3.99493V7.91723H63.4105V3.99493H47.3581ZM9.44257 7.33615H18.3041C19.1394 7.33615 24.7686 6.89125 24.7686 12.2753C24.7686 16.8786 20.701 17.3598 19.0304 17.3598H9.44257V7.33615ZM55.7838 11.4764C43.6446 11.4764 41.1115 22.0175 41.1115 26.5845C41.1115 40.14 52.2247 41.6926 55.7838 41.6926C65.3807 41.6926 68.1045 35.4823 69.2213 32.0321H62.2483C61.9759 32.9219 59.9421 35.8091 56.0743 35.8091C49.5917 35.8091 49.0287 30.7428 49.0287 28.473H69.6571C70.0748 20.6284 66.6428 11.4764 55.7838 11.4764ZM55.5659 17.3598C57.4998 17.3598 59.0615 17.9227 59.9966 18.9578C60.9318 20.0019 61.6218 21.5272 61.8125 23.5338H49.0287C49.0651 22.9799 49.1921 22.3444 49.3919 21.6453C49.5917 20.928 49.9003 20.2471 50.4088 19.6115C50.9172 18.985 51.6254 18.4402 52.4426 18.0135C53.2779 17.5777 54.3129 17.3598 55.5659 17.3598ZM9.44257 23.8243H19.6841C21.7179 23.8243 26.5118 24.1421 26.5118 29.9983C26.5118 35.6729 20.474 35.6639 19.5389 35.6639H9.44257V23.8243Z" fill="#272727"/>
</svg>
