<svg width="80" height="80" viewBox="0 0 80 80" fill="none" xmlns="http://www.w3.org/2000/svg">
<path fill-rule="evenodd" clip-rule="evenodd" d="M40 80C62.0918 80 80 62.0918 80 40C80 17.9082 62.0918 0 40 0C17.9082 0 0 17.9082 0 40C0 62.0918 17.9082 80 40 80ZM31.0098 54H17V26H30.6182C39.5645 26 39.876 30.8359 39.876 32.9531C39.876 36.7539 37.2676 38.1738 35.958 38.7695C37.7393 39.2676 41.248 40.9395 41.248 45.8652C41.248 53.7461 32.3076 54 31.0098 54ZM48.9385 31.1562V28.6016H59.7646V31.1562H48.9385ZM29.3447 30.7773H23.3682V37.3047H29.834C30.9609 37.3047 33.7041 36.9902 33.7041 33.9941C33.7041 30.6836 30.3193 30.7578 29.4668 30.7754L29.3447 30.7773ZM44.7256 43.3105C44.7256 40.3379 46.4346 33.4727 54.6211 33.4727C61.9443 33.4727 64.2588 39.4316 63.9775 44.541H50.0654C50.0654 46.0195 50.4453 49.3184 54.8174 49.3184C56.7822 49.3184 58.0449 48.252 58.6279 47.4766C58.8184 47.2227 58.9355 47 58.9805 46.8574H63.6836C62.9307 49.1055 61.0938 53.1484 54.6211 53.1484C52.2207 53.1484 44.7256 52.1367 44.7256 43.3105ZM57.4619 38.3438C56.832 37.6699 55.7783 37.3047 54.4746 37.3047C53.6289 37.3047 52.9307 37.4453 52.3682 37.7305C51.8164 38.0078 51.3389 38.3633 50.9961 38.7695C50.6533 39.1836 50.4453 39.627 50.3105 40.0938C50.1758 40.5508 50.0898 40.9629 50.0654 41.3242H58.6865C58.5586 40.0176 58.0928 39.0254 57.4619 38.3438ZM30.2754 41.5137H23.3682V49.2227H30.1768C30.8076 49.2227 34.8799 49.2285 34.8799 45.5332C34.8799 41.7207 31.6465 41.5137 30.2754 41.5137Z" fill="#272727"/>
</svg>
