<svg width="80" height="80" viewBox="0 0 80 80" fill="none" xmlns="http://www.w3.org/2000/svg">
<path fill-rule="evenodd" clip-rule="evenodd" d="M40 80C62.0918 80 80 62.0918 80 40C80 17.9082 62.0918 0 40 0C17.9082 0 0 17.9082 0 40C0 62.0918 17.9082 80 40 80ZM13 30.8379L39.5 14L66 30.8379V50.1621L39.5 67L13 50.1562V30.8379ZM32.0127 40.5879L39.5 45.7793L46.9873 40.5879L39.5 35.4824L32.0127 40.5879ZM42.0234 21.5078V31.168L51.375 37.543L58.9707 32.2773L42.0234 21.5078ZM27.625 37.543L36.9766 31.168V21.5078L20.0293 32.2773L27.625 37.543ZM18.0479 44.0742L23.2139 40.5547L18.0479 36.9707V44.0742ZM36.9766 50.0977L27.6006 43.5957L20.0537 48.7363L36.9766 59.4922V50.0977ZM51.3994 43.5957L42.0234 50.0977V59.4922L58.9463 48.7363L51.3994 43.5957ZM60.9521 36.9707L55.7861 40.5547L60.9521 44.0742V36.9707Z" fill="#272727"/>
</svg>
