<svg width="80" height="80" viewBox="0 0 80 80" fill="none" xmlns="http://www.w3.org/2000/svg">
<path d="M60.5 44C57.696 44 54.952 44.246 52.274 44.696C55.942 54.152 58.722 64.04 60.528 74.266C70.062 68.532 77.032 58.97 79.24 47.694C73.456 45.32 67.13 44 60.5 44ZM44.046 40.49C42.976 38.062 41.84 35.668 40.648 33.308C32.33 36.342 23.356 38 14 38C9.276 38 4.658 37.554 0.164 36.746C0.0779996 37.822 0 38.902 0 40C0 50.81 4.328 60.616 11.322 67.822C18.114 54.866 29.864 44.902 44.046 40.49ZM46.21 31.01C47.528 33.64 48.788 36.304 49.962 39.016C53.376 38.356 56.896 38 60.5 38C67.332 38 73.874 39.248 79.924 41.516C79.942 41.008 80 40.512 80 40C80 30.04 76.316 20.938 70.272 13.93C63.448 21.048 55.296 26.872 46.21 31.01ZM15.97 71.9C22.67 76.96 30.976 80 40 80C45.282 80 50.318 78.946 54.938 77.078C53.168 66.322 50.262 55.95 46.366 46.068C33.002 50.056 21.988 59.544 15.97 71.9ZM66.03 9.69C59.026 3.668 49.94 0 40 0C35.638 0 31.448 0.726 27.514 2.022C33.494 9.396 38.838 17.304 43.44 25.68C51.982 21.836 59.64 16.378 66.03 9.69ZM1.104 30.82C5.292 31.582 9.596 32 14 32C22.346 32 30.358 30.556 37.818 27.934C33.186 19.6 27.816 11.732 21.766 4.442C11.498 9.728 3.822 19.316 1.104 30.82Z" fill="#272727"/>
</svg>
