<svg width="50" height="50" viewBox="0 0 50 50" fill="none" xmlns="http://www.w3.org/2000/svg">
<path d="M37.8125 27.5C36.06 27.5 34.345 27.6537 32.6712 27.935C34.9637 33.845 36.7012 40.025 37.83 46.4162C43.7888 42.8325 48.145 36.8563 49.525 29.8088C45.91 28.325 41.9563 27.5 37.8125 27.5ZM27.5288 25.3063C26.86 23.7888 26.15 22.2925 25.405 20.8175C20.2062 22.7137 14.5975 23.75 8.75 23.75C5.7975 23.75 2.91125 23.4712 0.1025 22.9662C0.0487497 23.6387 0 24.3137 0 25C0 31.7563 2.705 37.885 7.07625 42.3887C11.3213 34.2912 18.665 28.0638 27.5288 25.3063ZM28.8812 19.3812C29.705 21.025 30.4925 22.69 31.2263 24.385C33.36 23.9725 35.56 23.75 37.8125 23.75C42.0825 23.75 46.1713 24.53 49.9525 25.9475C49.9638 25.63 50 25.32 50 25C50 18.775 47.6975 13.0863 43.92 8.70625C39.655 13.155 34.56 16.795 28.8812 19.3812ZM9.98125 44.9375C14.1687 48.1 19.36 50 25 50C28.3013 50 31.4487 49.3413 34.3362 48.1738C33.23 41.4513 31.4138 34.9688 28.9788 28.7925C20.6263 31.285 13.7425 37.215 9.98125 44.9375ZM41.2687 6.05625C36.8912 2.2925 31.2125 0 25 0C22.2738 0 19.655 0.45375 17.1962 1.26375C20.9337 5.8725 24.2737 10.815 27.15 16.05C32.4887 13.6475 37.275 10.2363 41.2687 6.05625ZM0.69 19.2625C3.3075 19.7387 5.9975 20 8.75 20C13.9662 20 18.9738 19.0975 23.6363 17.4587C20.7413 12.25 17.385 7.3325 13.6038 2.77625C7.18625 6.08 2.38875 12.0725 0.69 19.2625Z" fill="#272727"/>
</svg>
