<svg width="80" height="80" viewBox="0 0 80 80" fill="none" xmlns="http://www.w3.org/2000/svg">
<path fill-rule="evenodd" clip-rule="evenodd" d="M40 0C17.9036 0 0 18.3559 0 41.0104C0 59.126 11.4583 74.505 27.3568 79.925C29.362 80.2988 30.0911 79.0439 30.0911 77.9492C30.0911 76.9747 30.0521 74.3982 30.0391 70.9806C18.9062 73.4503 16.5625 65.4805 16.5625 65.4805C14.7396 60.7414 12.1224 59.4731 12.1224 59.4731C8.48958 56.9367 12.3958 56.9901 12.3958 56.9901C16.4062 57.2838 18.5156 61.2086 18.5156 61.2086C22.0833 67.483 27.8776 65.6674 30.1562 64.6261C30.5208 61.9696 31.5625 60.1673 32.6953 59.1394C23.8151 58.1115 14.4792 54.5871 14.4792 38.8745C14.4792 34.389 16.0417 30.7311 18.5937 27.8609C18.1901 26.833 16.8099 22.6545 18.9844 17.0076C18.9844 17.0076 22.3437 15.9129 29.987 21.2128C33.1771 20.305 36.6016 19.8511 40 19.8377C43.3984 19.8511 46.8229 20.305 50.013 21.2128C57.6562 15.9129 61.0026 17.0076 61.0026 17.0076C63.1901 22.6545 61.8229 26.833 61.4062 27.8609C63.9714 30.7311 65.5078 34.389 65.5078 38.8745C65.5078 54.6272 56.1589 58.0848 47.2526 59.1127C48.6849 60.3676 49.9609 62.8773 49.9609 66.6954C49.9609 72.1821 49.9219 76.6009 49.9219 77.9492C49.9219 79.0439 50.638 80.3255 52.6693 79.925C68.5547 74.4916 80 59.126 80 41.0104C80 18.3559 62.0964 0 40 0Z" fill="#272727"/>
</svg>
