<svg width="80" height="80" viewBox="0 0 80 80" fill="none" xmlns="http://www.w3.org/2000/svg">
<path d="M40 0C17.91 0 0 17.91 0 40C0 62.09 17.91 80 40 80C62.09 80 80 62.09 80 40C80 17.91 62.09 0 40 0ZM24.9867 18.01C27.7933 18.01 29.6633 19.88 29.6633 22.3733C29.6633 24.8667 27.7933 26.7367 24.6767 26.7367C21.87 26.74 20 24.8667 20 22.3733C20 19.88 21.87 18.01 24.9867 18.01ZM30 56.6667H20V30H30V56.6667ZM63.3333 56.6667H53.92V42.0933C53.92 38.0633 51.41 37.1333 50.47 37.1333C49.53 37.1333 46.39 37.7533 46.39 42.0933C46.39 42.7133 46.39 56.6667 46.39 56.6667H36.6667V30H46.3933V33.72C47.6467 31.55 50.1567 30 54.8633 30C59.57 30 63.3333 33.72 63.3333 42.0933V56.6667Z" fill="#272727"/>
</svg>
