<svg width="80" height="80" viewBox="0 0 80 80" fill="none" xmlns="http://www.w3.org/2000/svg">
<path d="M40 0C17.9441 0 0 17.9441 0 40C0 57.1898 10.9001 71.8787 26.1502 77.5252C25.711 73.6094 25.7799 67.1964 26.5046 64.0915C27.1834 61.175 30.8894 45.5052 30.8894 45.5052C30.8894 45.5052 29.7706 43.2646 29.7706 39.9554C29.7706 34.7551 32.7835 30.8751 36.5355 30.8751C39.7268 30.8751 41.2656 33.271 41.2656 36.1415C41.2656 39.3514 39.2248 44.1461 38.1678 48.5899C37.2862 52.3133 40.0345 55.3491 43.7046 55.3491C50.3502 55.3491 55.4585 48.3411 55.4585 38.2268C55.4585 29.2745 49.0272 23.0143 39.8418 23.0143C29.204 23.0143 22.9596 30.9944 22.9596 39.2421C22.9596 42.4549 24.1965 45.9007 25.7424 47.776C26.0473 48.147 26.0918 48.4706 26.0013 48.8473C25.718 50.028 25.0881 52.5678 24.963 53.0884C24.8004 53.7744 24.4207 53.9168 23.7132 53.5874C19.0422 51.4129 16.1227 44.5862 16.1227 39.1011C16.1227 27.3071 24.6911 16.4737 40.8298 16.4737C53.8017 16.4737 63.8815 25.7151 63.8815 38.07C63.8815 50.957 55.7547 61.3274 44.4783 61.3274C40.6889 61.3274 37.1281 59.3587 35.91 57.0332C35.91 57.0332 34.0347 64.172 33.5788 65.9222C32.7919 68.949 29.4235 75.2196 27.7326 78.0678C31.6008 79.3174 35.7214 80 40 80C62.0567 80 80 62.0567 80 40C80 17.9441 62.0567 0 40 0Z" fill="#272727"/>
</svg>
